<?xml version="1.0" encoding="UTF-8"?>
<svg xmlns="http://www.w3.org/2000/svg" width="900" height="1040" viewBox="0 0 900 1040" font-family="-apple-system, BlinkMacSystemFont, 'Segoe UI', Roboto, sans-serif">
  <rect x="0" y="0" width="900" height="1040" fill="#ffffff"/>
  <text x="24.0" y="36.0" font-size="22" fill="#111827" font-weight="bold">IDCT Rapid Cache — Benchmark</text>
  <text x="24.0" y="60.0" font-size="12" fill="#6b7280" font-weight="normal">100,000 items per adapter  ·  127.0.0.1:6379  ·  tags: tag1, tag2, tag3, tag4  ·  2026-05-27 18:45:46 UTC</text>
  <line x1="24" y1="74" x2="876" y2="74" stroke="#e5e7eb" stroke-width="1"/>

  <text x="24.0" y="114.0" font-size="17" fill="#111827" font-weight="bold">Tagged Benchmark</text>
  <text x="24.0" y="142.0" font-size="13" fill="#374151" font-weight="bold">SET ops/sec</text>
  <text x="182" y="169.0" font-size="12" fill="#374151" text-anchor="end">Rapid Cache</text>
  <rect x="192" y="152.0" width="588" height="26" rx="3" fill="rgb(59, 130, 246)" stroke="rgb(37, 99, 235)" stroke-width="1"/>
  <text x="788" y="169.0" font-size="12" fill="#111827" text-anchor="start">7,529</text>
  <text x="182" y="207.0" font-size="12" fill="#374151" text-anchor="end">Symfony (JSON)</text>
  <rect x="192" y="190.0" width="34" height="26" rx="3" fill="rgb(59, 130, 246)" stroke="rgb(37, 99, 235)" stroke-width="1"/>
  <text x="234" y="207.0" font-size="12" fill="#111827" text-anchor="start">434</text>
  <text x="182" y="245.0" font-size="12" fill="#374151" text-anchor="end">Symfony (igbinary)</text>
  <rect x="192" y="228.0" width="32" height="26" rx="3" fill="rgb(59, 130, 246)" stroke="rgb(37, 99, 235)" stroke-width="1"/>
  <text x="232" y="245.0" font-size="12" fill="#111827" text-anchor="start">412</text>
  <text x="24.0" y="288.0" font-size="13" fill="#374151" font-weight="bold">GET ops/sec</text>
  <text x="182" y="315.0" font-size="12" fill="#374151" text-anchor="end">Rapid Cache</text>
  <rect x="192" y="298.0" width="588" height="26" rx="3" fill="rgb(16, 185, 129)" stroke="rgb(5, 150, 105)" stroke-width="1"/>
  <text x="788" y="315.0" font-size="12" fill="#111827" text-anchor="start">318,312</text>
  <text x="182" y="353.0" font-size="12" fill="#374151" text-anchor="end">Symfony (igbinary)</text>
  <rect x="192" y="336.0" width="296" height="26" rx="3" fill="rgb(16, 185, 129)" stroke="rgb(5, 150, 105)" stroke-width="1"/>
  <text x="496" y="353.0" font-size="12" fill="#111827" text-anchor="start">160,031</text>
  <text x="182" y="391.0" font-size="12" fill="#374151" text-anchor="end">Symfony (JSON)</text>
  <rect x="192" y="374.0" width="288" height="26" rx="3" fill="rgb(16, 185, 129)" stroke="rgb(5, 150, 105)" stroke-width="1"/>
  <text x="488" y="391.0" font-size="12" fill="#111827" text-anchor="start">155,646</text>
  <text x="24.0" y="434.0" font-size="13" fill="#374151" font-weight="bold">Total ops/sec</text>
  <text x="182" y="461.0" font-size="12" fill="#374151" text-anchor="end">Rapid Cache</text>
  <rect x="192" y="444.0" width="588" height="26" rx="3" fill="rgb(245, 158, 11)" stroke="rgb(217, 119, 6)" stroke-width="1"/>
  <text x="788" y="461.0" font-size="12" fill="#111827" text-anchor="start">34,391</text>
  <text x="182" y="499.0" font-size="12" fill="#374151" text-anchor="end">Symfony (JSON)</text>
  <rect x="192" y="482.0" width="37" height="26" rx="3" fill="rgb(245, 158, 11)" stroke="rgb(217, 119, 6)" stroke-width="1"/>
  <text x="237" y="499.0" font-size="12" fill="#111827" text-anchor="start">2,147</text>
  <text x="182" y="537.0" font-size="12" fill="#374151" text-anchor="end">Symfony (igbinary)</text>
  <rect x="192" y="520.0" width="35" height="26" rx="3" fill="rgb(245, 158, 11)" stroke="rgb(217, 119, 6)" stroke-width="1"/>
  <text x="235" y="537.0" font-size="12" fill="#111827" text-anchor="start">2,041</text>
  <text x="24.0" y="580.0" font-size="17" fill="#111827" font-weight="bold">Basic Benchmark</text>
  <text x="24.0" y="608.0" font-size="13" fill="#374151" font-weight="bold">SET ops/sec</text>
  <text x="182" y="635.0" font-size="12" fill="#374151" text-anchor="end">Rapid Cache</text>
  <rect x="192" y="618.0" width="588" height="26" rx="3" fill="rgb(59, 130, 246)" stroke="rgb(37, 99, 235)" stroke-width="1"/>
  <text x="788" y="635.0" font-size="12" fill="#111827" text-anchor="start">7,961</text>
  <text x="182" y="673.0" font-size="12" fill="#374151" text-anchor="end">Symfony (JSON)</text>
  <rect x="192" y="656.0" width="279" height="26" rx="3" fill="rgb(59, 130, 246)" stroke="rgb(37, 99, 235)" stroke-width="1"/>
  <text x="479" y="673.0" font-size="12" fill="#111827" text-anchor="start">3,782</text>
  <text x="182" y="711.0" font-size="12" fill="#374151" text-anchor="end">Symfony (igbinary)</text>
  <rect x="192" y="694.0" width="277" height="26" rx="3" fill="rgb(59, 130, 246)" stroke="rgb(37, 99, 235)" stroke-width="1"/>
  <text x="477" y="711.0" font-size="12" fill="#111827" text-anchor="start">3,746</text>
  <text x="24.0" y="754.0" font-size="13" fill="#374151" font-weight="bold">GET ops/sec</text>
  <text x="182" y="781.0" font-size="12" fill="#374151" text-anchor="end">Rapid Cache</text>
  <rect x="192" y="764.0" width="588" height="26" rx="3" fill="rgb(16, 185, 129)" stroke="rgb(5, 150, 105)" stroke-width="1"/>
  <text x="788" y="781.0" font-size="12" fill="#111827" text-anchor="start">8,292</text>
  <text x="182" y="819.0" font-size="12" fill="#374151" text-anchor="end">Symfony (igbinary)</text>
  <rect x="192" y="802.0" width="530" height="26" rx="3" fill="rgb(16, 185, 129)" stroke="rgb(5, 150, 105)" stroke-width="1"/>
  <text x="730" y="819.0" font-size="12" fill="#111827" text-anchor="start">7,480</text>
  <text x="182" y="857.0" font-size="12" fill="#374151" text-anchor="end">Symfony (JSON)</text>
  <rect x="192" y="840.0" width="530" height="26" rx="3" fill="rgb(16, 185, 129)" stroke="rgb(5, 150, 105)" stroke-width="1"/>
  <text x="730" y="857.0" font-size="12" fill="#111827" text-anchor="start">7,469</text>
  <text x="24.0" y="900.0" font-size="13" fill="#374151" font-weight="bold">Total ops/sec</text>
  <text x="182" y="927.0" font-size="12" fill="#374151" text-anchor="end">Rapid Cache</text>
  <rect x="192" y="910.0" width="588" height="26" rx="3" fill="rgb(245, 158, 11)" stroke="rgb(217, 119, 6)" stroke-width="1"/>
  <text x="788" y="927.0" font-size="12" fill="#111827" text-anchor="start">8,123</text>
  <text x="182" y="965.0" font-size="12" fill="#374151" text-anchor="end">Symfony (JSON)</text>
  <rect x="192" y="948.0" width="363" height="26" rx="3" fill="rgb(245, 158, 11)" stroke="rgb(217, 119, 6)" stroke-width="1"/>
  <text x="563" y="965.0" font-size="12" fill="#111827" text-anchor="start">5,021</text>
  <text x="182" y="1003.0" font-size="12" fill="#374151" text-anchor="end">Symfony (igbinary)</text>
  <rect x="192" y="986.0" width="361" height="26" rx="3" fill="rgb(245, 158, 11)" stroke="rgb(217, 119, 6)" stroke-width="1"/>
  <text x="561" y="1003.0" font-size="12" fill="#111827" text-anchor="start">4,992</text>
</svg>
